<?xml version="1.0" standalone="no"?>
<!DOCTYPE svg PUBLIC "-//W3C//DTD SVG 20010904//EN"
 "http://www.w3.org/TR/2001/REC-SVG-20010904/DTD/svg10.dtd">
<svg version="1.0" xmlns="http://www.w3.org/2000/svg"
 width="260.000000pt" height="260.000000pt" viewBox="0 0 260.000000 260.000000"
 preserveAspectRatio="xMidYMid meet">
<metadata>
Created by potrace 1.11, written by Peter Selinger 2001-2013
</metadata>
<g transform="translate(0.000000,260.000000) scale(0.100000,-0.100000)"
fill="#000000" stroke="none">
<path d="M386 1543 c1 -153 2 -281 3 -284 0 -3 127 -6 281 -5 l280 0 0 283 0
283 -283 0 -282 0 1 -277z"/>
<path d="M1019 1793 c-4 -140 -1 -525 5 -531 4 -4 131 -7 282 -8 270 0 274 0
275 20 0 12 1 138 1 281 l1 260 -282 3 -281 2 -1 -27z"/>
<path d="M1650 1537 l0 -283 282 0 283 1 0 280 0 280 -282 3 -283 2 0 -283z"/>
<path d="M1019 1171 c-1 -23 -1 -502 0 -528 l1 -23 280 0 c217 0 280 3 281 13
1 18 1 497 0 528 l-1 26 -280 -1 c-247 0 -280 -2 -281 -15z"/>
</g>
</svg>
